<svg width="51" height="51" viewBox="0 0 51 51" fill="none" xmlns="http://www.w3.org/2000/svg">
<mask id="mask0_2004_2639" style="mask-type:luminance" maskUnits="userSpaceOnUse" x="0" y="0" width="51" height="51">
<path d="M0 0H51V51H0V0Z" fill="white"/>
</mask>
<g mask="url(#mask0_2004_2639)">
<path d="M28.8965 50.9201H41.3532C42.7834 45.8342 43.831 34.9174 45.344 18.4175C43.4882 23.5826 39.2176 29.374 39.2176 29.374C39.2176 29.374 35.2198 44.3963 28.8965 50.9201Z" fill="#2F4F8D"/>
<path d="M49.2091 0.708496C49.2134 3.726 47.9171 11.4603 46.8263 14.1151L44.6396 50.9201H49.2842L49.2091 0.708496Z" fill="#C12225"/>
<path d="M1.4165 50.6887C13.9016 48.9355 26.4731 43.6322 35.6333 33.5073C34.6558 37.1156 29.3376 46.3069 24.1923 50.6887H1.4165Z" fill="white" stroke="#D9DDE4"/>
<path d="M18.8516 47.0001V49.3007H18.5732V47.2926H18.5598L17.998 47.6652V47.3819L18.5732 47.0001H18.8516ZM20.2463 46.9689C20.3405 46.9689 20.4347 46.9873 20.5296 47.0227C20.6238 47.0581 20.7095 47.1162 20.7875 47.1977C20.8654 47.2784 20.9277 47.3889 20.9752 47.5292C21.0226 47.6694 21.046 47.8451 21.046 48.0562C21.046 48.2609 21.0269 48.4422 20.9879 48.6016C20.9563 48.7435 20.9 48.8787 20.8215 49.0011C20.7557 49.104 20.6654 49.189 20.5587 49.2483C20.456 49.305 20.3391 49.3326 20.2102 49.3326C20.0813 49.3326 19.9665 49.3071 19.8652 49.2561C19.7665 49.2059 19.6816 49.1322 19.618 49.0415C19.5543 48.9494 19.5139 48.8431 19.4955 48.7213H19.7696C19.7944 48.8276 19.8433 48.914 19.9169 48.9834C19.9978 49.054 20.1029 49.0905 20.2102 49.0854C20.3873 49.0854 20.5275 49.0075 20.6302 48.8531C20.7336 48.6972 20.7853 48.4784 20.7853 48.1957H20.7676C20.7267 48.2576 20.6762 48.3125 20.6182 48.3586C20.4995 48.4525 20.3522 48.5028 20.201 48.501C20.0734 48.5021 19.948 48.4683 19.8383 48.4033C19.7288 48.3372 19.6383 48.244 19.5755 48.1327C19.5089 48.0117 19.4752 47.8755 19.4778 47.7374C19.4778 47.5958 19.5089 47.4676 19.572 47.3507C19.634 47.2346 19.7263 47.1374 19.839 47.0695C19.9625 46.9979 20.1037 46.963 20.2463 46.9689ZM20.2463 47.2161C20.1563 47.2149 20.0678 47.2395 19.9913 47.2869C19.9163 47.3332 19.8545 47.3981 19.8121 47.4754C19.7684 47.5557 19.7462 47.646 19.7476 47.7374C19.7476 47.8331 19.7689 47.9202 19.81 47.9995C19.8504 48.0775 19.9118 48.1427 19.9872 48.1878C20.0627 48.2328 20.1492 48.2559 20.2371 48.2545C20.3048 48.2552 20.3719 48.2414 20.434 48.2142C20.496 48.187 20.5516 48.1469 20.5969 48.0966C20.6428 48.0478 20.6795 47.9912 20.7053 47.9294C20.7352 47.8574 20.7484 47.7796 20.7438 47.7018C20.7393 47.624 20.7171 47.5483 20.6791 47.4803C20.6374 47.4025 20.5764 47.3366 20.502 47.2891C20.4258 47.24 20.3369 47.2147 20.2463 47.2161ZM22.2969 47.0001V49.3007H22.0178V47.2926H22.0044L21.4427 47.6652V47.3819L22.0178 47.0001H22.2969ZM23.6909 46.9689C23.7851 46.9689 23.8793 46.9873 23.9743 47.0227C24.0685 47.0581 24.1542 47.1162 24.2321 47.1977C24.31 47.2784 24.373 47.3889 24.4198 47.5292C24.4673 47.6694 24.4906 47.8451 24.4906 48.0562C24.4906 48.2609 24.4715 48.4422 24.4325 48.6016C24.401 48.7435 24.3446 48.8787 24.2661 49.0011C24.2003 49.104 24.11 49.189 24.0033 49.2483C23.9006 49.305 23.7844 49.3326 23.6548 49.3326C23.5259 49.3326 23.4111 49.3071 23.3098 49.2561C23.2111 49.2059 23.1262 49.1322 23.0626 49.0415C22.9989 48.9494 22.9585 48.8431 22.9401 48.7213H23.2142C23.239 48.8276 23.2886 48.914 23.3615 48.9834C23.4425 49.0539 23.5476 49.0905 23.6548 49.0854C23.8319 49.0854 23.9721 49.0075 24.0748 48.8531C24.1783 48.6972 24.2307 48.4784 24.2307 48.1957H24.2123C24.1713 48.2576 24.1209 48.3125 24.0628 48.3586C23.9444 48.4525 23.7974 48.5028 23.6463 48.501C23.5185 48.5023 23.3928 48.4685 23.2829 48.4033C23.1735 48.3372 23.0829 48.244 23.0201 48.1327C22.9536 48.0117 22.9199 47.8755 22.9224 47.7374C22.9224 47.5958 22.9543 47.4676 23.0166 47.3507C23.0788 47.2345 23.1713 47.1373 23.2843 47.0695C23.4076 46.9981 23.5486 46.9632 23.6909 46.9689ZM23.6909 47.2161C23.6009 47.2149 23.5124 47.2395 23.4359 47.2869C23.3611 47.3333 23.2997 47.3982 23.2574 47.4754C23.2135 47.5557 23.1911 47.6459 23.1923 47.7374C23.1923 47.8331 23.2135 47.9202 23.2546 47.9995C23.295 48.0776 23.3563 48.1428 23.4318 48.1879C23.5073 48.2329 23.5938 48.256 23.6817 48.2545C23.7495 48.2552 23.8166 48.2414 23.8786 48.2142C23.9406 48.187 23.9962 48.1469 24.0415 48.0966C24.0876 48.0478 24.1246 47.9912 24.1506 47.9294C24.1805 47.8574 24.1937 47.7796 24.1892 47.7018C24.1846 47.624 24.1625 47.5483 24.1244 47.4803C24.0827 47.4025 24.0217 47.3366 23.9473 47.2891C23.871 47.2399 23.7817 47.2145 23.6909 47.2161Z" fill="#8E9193"/>
</g>
</svg>
